<?xml version="1.0" encoding="UTF-8" standalone="no"?>
<!-- Generator: Adobe Illustrator 18.0.0, SVG Export Plug-In . SVG Version: 6.00 Build 0)  -->

<svg
   xmlns:dc="http://purl.org/dc/elements/1.1/"
   xmlns:cc="http://creativecommons.org/ns#"
   xmlns:rdf="http://www.w3.org/1999/02/22-rdf-syntax-ns#"
   xmlns:svg="http://www.w3.org/2000/svg"
   xmlns="http://www.w3.org/2000/svg"
   xmlns:sodipodi="http://sodipodi.sourceforge.net/DTD/sodipodi-0.dtd"
   xmlns:inkscape="http://www.inkscape.org/namespaces/inkscape"
   version="1.1"
   id="Capa_1"
   x="0px"
   y="0px"
   viewBox="0 0 1316.4009 286.34978"
   xml:space="preserve"
   sodipodi:docname="kfd_forms_logo.svg"
   inkscape:version="0.92.4 (unknown)"
   width="1476.469"
   height="286.35211"><metadata
   id="metadata10771"><rdf:RDF><cc:Work
       rdf:about=""><dc:format>image/svg+xml</dc:format><dc:type
         rdf:resource="http://purl.org/dc/dcmitype/StillImage" /><dc:title></dc:title></cc:Work></rdf:RDF></metadata><defs
   id="defs10769">

</defs><sodipodi:namedview
   pagecolor="#ffffff"
   bordercolor="#666666"
   borderopacity="1"
   objecttolerance="10"
   gridtolerance="10"
   guidetolerance="10"
   inkscape:pageopacity="0"
   inkscape:pageshadow="2"
   inkscape:window-width="1299"
   inkscape:window-height="713"
   id="namedview10767"
   showgrid="true"
   inkscape:zoom="0.47966115"
   inkscape:cx="772.93413"
   inkscape:cy="-28.830389"
   inkscape:window-x="67"
   inkscape:window-y="27"
   inkscape:window-maximized="1"
   inkscape:current-layer="Capa_1"
   inkscape:snap-bbox="false"
   viewbox-height="492.01"
   showborder="true"
   inkscape:pagecheckerboard="true"
   fit-margin-top="0"
   fit-margin-left="0"
   fit-margin-right="0"
   fit-margin-bottom="0"
   borderlayer="true"><inkscape:grid
     type="xygrid"
     id="grid11486"
     originx="-91.111889"
     originy="-548.7807" /></sodipodi:namedview>
















<g
   id="g10736"
   transform="translate(-118.19111,16.296231)">
</g><g
   id="g10738"
   transform="translate(-118.19111,16.296231)">
</g><g
   id="g10740"
   transform="translate(-118.19111,16.296231)">
</g><g
   id="g10742"
   transform="translate(-118.19111,16.296231)">
</g><g
   id="g10744"
   transform="translate(-118.19111,16.296231)">
</g><g
   id="g10746"
   transform="translate(-118.19111,16.296231)">
</g><g
   id="g10748"
   transform="translate(-118.19111,16.296231)">
</g><g
   id="g10750"
   transform="translate(-118.19111,16.296231)">
</g><g
   id="g10752"
   transform="translate(-118.19111,16.296231)">
</g><g
   id="g10754"
   transform="translate(-118.19111,16.296231)">
</g><g
   id="g10756"
   transform="translate(-118.19111,16.296231)">
</g><g
   id="g10758"
   transform="translate(-118.19111,16.296231)">
</g><g
   id="g10760"
   transform="translate(-118.19111,16.296231)">
</g><g
   id="g10762"
   transform="translate(-118.19111,16.296231)">
</g><g
   id="g10764"
   transform="translate(-118.19111,16.296231)">
</g><g
   id="XMLID_144_"
   transform="matrix(0.42688492,0,0,0.50764288,-78.160188,27.467447)"
   style="opacity:1;fill:#3d80f7;fill-opacity:1;stroke:#000000;stroke-opacity:1"><path
     id="XMLID_151_"
     d="M 339.277,459.566 H 34.922 V 32.446 h 304.354 v 105.873 l 32.446,-32.447 V 16.223 C 371.723,7.264 364.458,0 355.5,0 H 18.699 C 9.739,0 2.473,7.264 2.473,16.223 v 459.568 c 0,8.959 7.265,16.223 16.226,16.223 H 355.5 c 8.958,0 16.223,-7.264 16.223,-16.223 V 297.268 l -32.446,32.447 z"
     inkscape:connector-curvature="0"
     style="fill:#3d80f7;fill-opacity:1;stroke:#000000;stroke-opacity:1" /><path
     id="XMLID_150_"
     d="M 291.446,71.359 H 82.751 c -6.843,0 -12.396,5.553 -12.396,12.398 0,6.844 5.553,12.397 12.396,12.397 h 208.694 c 6.845,0 12.397,-5.553 12.397,-12.397 0.001,-6.845 -5.552,-12.398 -12.396,-12.398 z"
     inkscape:connector-curvature="0"
     style="fill:#3d80f7;fill-opacity:1;stroke:#000000;stroke-opacity:1" /><path
     id="XMLID_149_"
     d="m 303.843,149.876 c 0,-6.844 -5.553,-12.398 -12.397,-12.398 H 82.751 c -6.843,0 -12.396,5.554 -12.396,12.398 0,6.845 5.553,12.398 12.396,12.398 h 208.694 c 6.845,0 12.398,-5.552 12.398,-12.398 z"
     inkscape:connector-curvature="0"
     style="fill:#3d80f7;fill-opacity:1;stroke:#000000;stroke-opacity:1" /><path
     id="XMLID_148_"
     d="M 274.004,203.6 H 82.751 c -6.843,0 -12.396,5.554 -12.396,12.398 0,6.845 5.553,12.397 12.396,12.397 h 166.457 z"
     inkscape:connector-curvature="0"
     style="fill:#3d80f7;fill-opacity:1;stroke:#000000;stroke-opacity:1" /><path
     id="XMLID_147_"
     d="m 204.655,285.79 c 1.678,-5.618 4.076,-11.001 6.997,-16.07 h -128.9 c -6.843,0 -12.396,5.553 -12.396,12.398 0,6.844 5.553,12.398 12.396,12.398 h 119.304 z"
     inkscape:connector-curvature="0"
     style="fill:#3d80f7;fill-opacity:1;stroke:#000000;stroke-opacity:1" /><path
     id="XMLID_146_"
     d="m 82.751,335.842 c -6.843,0 -12.396,5.553 -12.396,12.398 0,6.843 5.553,12.397 12.396,12.397 h 108.9 c -3.213,-7.796 -4.044,-16.409 -1.775,-24.795 z"
     inkscape:connector-curvature="0"
     style="fill:#3d80f7;fill-opacity:1;stroke:#000000;stroke-opacity:1" /><path
     id="XMLID_145_"
     d="m 479.403,93.903 c -6.496,-6.499 -15.304,-10.146 -24.48,-10.146 -9.176,0 -17.982,3.647 -24.471,10.138 L 247.036,277.316 c -5.005,5.003 -8.676,11.162 -10.703,17.942 l -14.616,48.994 c -0.622,2.074 -0.057,4.318 1.477,5.852 1.122,1.123 2.624,1.727 4.164,1.727 0.558,0 1.13,-0.08 1.688,-0.249 l 48.991,-14.618 c 6.782,-2.026 12.941,-5.699 17.943,-10.702 L 479.402,142.848 c 6.489,-6.49 10.138,-15.295 10.138,-24.472 0,-9.179 -3.648,-17.984 -10.137,-24.473 z"
     inkscape:connector-curvature="0"
     style="fill:#3d80f7;fill-opacity:1;stroke:#000000;stroke-opacity:1" /></g><text
   xml:space="preserve"
   style="font-style:normal;font-variant:normal;font-weight:normal;font-stretch:normal;font-size:287.65362549px;line-height:1.25;letter-spacing:0px;word-spacing:0px;opacity:0.91100003;fill:#ffffff;fill-opacity:1;stroke:none;stroke-width:2.99639201"
   x="227.5399"
   y="215.72049"
   id="text8536"
   transform="scale(0.77266885,1.2942155)"><tspan
     sodipodi:role="line"
     id="tspan8534"
     x="227.5399"
     y="215.72049"
     style="fill:#ffffff;fill-opacity:1;stroke-width:2.99639201">KFD</tspan></text>
<text
   xml:space="preserve"
   style="font-style:normal;font-variant:normal;font-weight:normal;font-stretch:normal;font-size:281.04440308px;line-height:1.25;letter-spacing:0px;word-spacing:0px;opacity:0.91100003;fill:#3d80f7;fill-opacity:1;stroke:none;stroke-width:2.92754579"
   x="900.85297"
   y="208.58765"
   id="text8548"
   transform="scale(0.74233435,1.3471019)"><tspan
     sodipodi:role="line"
     id="tspan8546"
     x="900.85297"
     y="208.58765"
     style="fill:#3d80f7;fill-opacity:1;stroke-width:2.92754579">FORMS</tspan></text>
</svg>